<svg width="16" height="17" viewBox="0 0 16 17" fill="none" xmlns="http://www.w3.org/2000/svg">
<g clip-path="url(#clip0_76_1035)">
<path d="M14.6667 2.55859H1.33333C0.597222 2.55859 0 3.15582 0 3.89193V13.6697C0 14.4058 0.597222 15.003 1.33333 15.003H14.6667C15.4028 15.003 16 14.4058 16 13.6697V3.89193C16 3.15582 15.4028 2.55859 14.6667 2.55859ZM4.88889 5.22526C5.86944 5.22526 6.66667 6.02248 6.66667 7.00304C6.66667 7.98359 5.86944 8.78082 4.88889 8.78082C3.90833 8.78082 3.11111 7.98359 3.11111 7.00304C3.11111 6.02248 3.90833 5.22526 4.88889 5.22526ZM8 11.803C8 12.0975 7.72222 12.3364 7.37778 12.3364H2.4C2.05556 12.3364 1.77778 12.0975 1.77778 11.803V11.2697C1.77778 10.3864 2.61389 9.6697 3.64444 9.6697H3.78333C4.125 9.81137 4.49722 9.89193 4.88889 9.89193C5.28056 9.89193 5.65556 9.81137 5.99444 9.6697H6.13333C7.16389 9.6697 8 10.3864 8 11.2697V11.803ZM14.2222 10.3364C14.2222 10.4586 14.1222 10.5586 14 10.5586H10C9.87778 10.5586 9.77778 10.4586 9.77778 10.3364V9.89193C9.77778 9.7697 9.87778 9.6697 10 9.6697H14C14.1222 9.6697 14.2222 9.7697 14.2222 9.89193V10.3364ZM14.2222 8.55859C14.2222 8.68082 14.1222 8.78082 14 8.78082H10C9.87778 8.78082 9.77778 8.68082 9.77778 8.55859V8.11415C9.77778 7.99193 9.87778 7.89193 10 7.89193H14C14.1222 7.89193 14.2222 7.99193 14.2222 8.11415V8.55859ZM14.2222 6.78082C14.2222 6.90304 14.1222 7.00304 14 7.00304H10C9.87778 7.00304 9.77778 6.90304 9.77778 6.78082V6.33637C9.77778 6.21415 9.87778 6.11415 10 6.11415H14C14.1222 6.11415 14.2222 6.21415 14.2222 6.33637V6.78082Z" fill="white"/>
</g>
<defs>
<clipPath id="clip0_76_1035">
<rect width="16" height="16" fill="white" transform="translate(0 0.78125)"/>
</clipPath>
</defs>
</svg>
