<svg width="41" height="41" viewBox="0 0 41 41" fill="none" xmlns="http://www.w3.org/2000/svg">
<g clip-path="url(#clip0_1_618)">
<mask id="mask0_1_618" style="mask-type:luminance" maskUnits="userSpaceOnUse" x="0" y="0" width="41" height="41">
<path d="M40.97 0.0698242H0.97998V40.0598H40.97V0.0698242Z" fill="white"/>
</mask>
<g mask="url(#mask0_1_618)">
<path fill-rule="evenodd" clip-rule="evenodd" d="M28.7543 21.95C31.037 23.4996 32.6366 25.599 32.6366 28.3983V33.3971H39.3016V28.3983C39.3016 24.7659 33.3531 22.6165 28.7543 21.95Z" fill="white"/>
<path d="M15.9763 20.0649C19.6572 20.0649 22.6413 17.0808 22.6413 13.3999C22.6413 9.71889 19.6572 6.73486 15.9763 6.73486C12.2953 6.73486 9.31128 9.71889 9.31128 13.3999C9.31128 17.0808 12.2953 20.0649 15.9763 20.0649Z" fill="white"/>
<path fill-rule="evenodd" clip-rule="evenodd" d="M25.9716 20.0649C29.654 20.0649 32.6366 17.0823 32.6366 13.3999C32.6366 9.71745 29.654 6.73486 25.9716 6.73486C25.1885 6.73486 24.4553 6.90149 23.7555 7.13476C25.1385 8.851 25.9716 11.0338 25.9716 13.3999C25.9716 15.7659 25.1385 17.9487 23.7555 19.665C24.4553 19.8982 25.1885 20.0649 25.9716 20.0649Z" fill="white"/>
<path fill-rule="evenodd" clip-rule="evenodd" d="M15.9762 21.7312C11.5274 21.7312 2.64624 23.964 2.64624 28.3962V33.395H29.3062V28.3962C29.3062 23.964 20.4251 21.7312 15.9762 21.7312Z" fill="white"/>
</g>
</g>
<defs>
<clipPath id="clip0_1_618">
<rect width="39.99" height="39.99" fill="white" transform="translate(0.97998 0.0698242)"/>
</clipPath>
</defs>
</svg>
