<svg width="16" height="17" viewBox="0 0 16 17" fill="none" xmlns="http://www.w3.org/2000/svg">
<g clip-path="url(#clip0_76_1043)">
<path d="M10.6665 8.11523C11.7732 8.11523 12.6598 7.2219 12.6598 6.11523C12.6598 5.00857 11.7732 4.11523 10.6665 4.11523C9.55984 4.11523 8.6665 5.00857 8.6665 6.11523C8.6665 7.2219 9.55984 8.11523 10.6665 8.11523ZM5.33317 8.11523C6.43984 8.11523 7.3265 7.2219 7.3265 6.11523C7.3265 5.00857 6.43984 4.11523 5.33317 4.11523C4.2265 4.11523 3.33317 5.00857 3.33317 6.11523C3.33317 7.2219 4.2265 8.11523 5.33317 8.11523ZM5.33317 9.44857C3.77984 9.44857 0.666504 10.2286 0.666504 11.7819V13.4486H9.99984V11.7819C9.99984 10.2286 6.8865 9.44857 5.33317 9.44857ZM10.6665 9.44857C10.4732 9.44857 10.2532 9.4619 10.0198 9.4819C10.7932 10.0419 11.3332 10.7952 11.3332 11.7819V13.4486H15.3332V11.7819C15.3332 10.2286 12.2198 9.44857 10.6665 9.44857Z" fill="white"/>
</g>
<defs>
<clipPath id="clip0_76_1043">
<rect width="16" height="16" fill="white" transform="translate(0 0.78125)"/>
</clipPath>
</defs>
</svg>
