<svg width="610" height="79" viewBox="0 0 610 79" fill="none" xmlns="http://www.w3.org/2000/svg">
<g clip-path="url(#clip0_1_176)">
<path d="M202.257 75.4794H190.518V4.70361H202.257V75.4794Z" fill="white"/>
<path d="M182.813 22.3667H162.506L152.721 31.4848V66.4738L161.891 75.4794H182.813L194.431 63.9681H164.218V33.5407H194.431L182.813 22.3667Z" fill="white"/>
<path d="M219.989 23.384L210.451 32.1647V40.2548H220.966V35.7038L223.787 33.1981H248.363V44.0241H219.874L210.451 52.6816V67.1537L219.627 75.4847H241.031L248.363 68.8724V75.4847H259.993V32.2825L250.937 23.384H219.989ZM226.77 65.9598C223.535 65.9598 220.909 63.5022 220.909 60.4879C220.909 58.9727 221.57 57.6074 222.627 56.6115C223.69 55.621 225.161 55.0107 226.775 55.0107H248.426V65.9598H226.77Z" fill="white"/>
<path d="M312.092 23.384L302.554 32.1647V40.2548H313.069V35.7038L315.89 33.1981H340.466V44.0241H311.977L302.554 52.6816V67.1537L311.73 75.4847H333.134L340.466 68.8724V75.4847H352.096V32.2825L343.04 23.384H312.092ZM318.873 65.9598C315.638 65.9598 313.012 63.5022 313.012 60.4879C313.012 58.9727 313.673 57.6074 314.73 56.6115C315.793 55.621 317.264 55.0107 318.878 55.0107H340.529V65.9598H318.873Z" fill="white"/>
<path d="M496.669 75.4794H484.924V23.5072H496.669V75.4794Z" fill="white"/>
<path d="M458.504 68.2995H446.765V23.5072H458.504V68.2995Z" fill="white"/>
<path d="M477.983 75.4794L487.522 66.0187H458.504L446.765 68.2995L455.568 75.4794H477.983Z" fill="white"/>
<path d="M278.702 68.2995H266.963V10.1755H278.702V68.2995Z" fill="white"/>
<path d="M295.584 75.4794V66.0187H278.702L266.963 68.2995L275.766 75.4794H295.584Z" fill="white"/>
<path d="M285.551 23.5072H295.584V32.9679H278.702V29.5466L285.551 23.5072Z" fill="white"/>
<path d="M370.811 68.2995H359.066V10.1755H370.811V68.2995Z" fill="white"/>
<path d="M387.687 75.4794V66.0187H370.811L359.066 68.2995L367.875 75.4794H387.687Z" fill="white"/>
<path d="M377.66 23.5072H387.687V32.9679H370.811V29.5466L377.66 23.5072Z" fill="white"/>
<path d="M406.402 75.4794H394.663V23.5072H406.402V75.4794Z" fill="white"/>
<path d="M414.228 23.5072H430.613L439.542 32.9679V41.6308H428.533V32.9679H406.402V30.007L414.228 23.5072Z" fill="white"/>
<path d="M543.511 22.3668H513.425L503.639 31.4848V66.4738L512.81 75.4794H533.725L545.349 63.9681H515.137V33.5407H555.135L543.511 22.3668Z" fill="white"/>
<path d="M555.135 33.5407H540.822V39.5802H555.135V33.5407Z" fill="white"/>
<path d="M555.135 57.9286H540.822V63.9681H555.135V57.9286Z" fill="white"/>
<path d="M533.725 75.4794H544.246L555.135 63.9681H540.822L533.725 75.4794Z" fill="white"/>
<path d="M573.844 75.4794H562.105V4.70361H573.844V75.4794Z" fill="white"/>
<path d="M573.844 44.9342L598.063 22.8272H609.32V33.878H601.488L585.836 48.5804H573.844V44.9342Z" fill="white"/>
<path d="M573.844 52.2319L598.063 74.3389H609.32V63.2827H601.488L585.836 48.5804H573.844V52.2319Z" fill="white"/>
<path d="M102.436 31.5639L96.5021 37.0778C95.2026 38.2852 93.4401 38.9636 91.6035 38.9636H76.8853L70.0666 32.6278C68.8701 31.5161 66.9338 31.5161 65.7405 32.6278L60.9513 37.0778C59.6519 38.2852 57.8893 38.9636 56.0527 38.9636H42.2512C40.4147 38.9636 38.6521 38.2852 37.3527 37.0778L35.8506 35.6821C35.2073 35.0844 34.162 35.0844 33.5155 35.6821L30.4825 38.5003C29.8392 39.0981 29.8392 40.0693 30.4825 40.67L33.5155 43.4882C34.1588 44.0859 35.2041 44.0859 35.8506 43.4882L37.3527 42.0926C38.6521 40.8852 40.4147 40.2068 42.2512 40.2068H56.0463C57.8829 40.2068 59.6455 40.8852 60.9449 42.0926L65.7341 46.5425C66.9306 47.6543 68.8668 47.6543 70.0601 46.5425L76.8789 40.2068H91.7804C93.617 40.2068 95.3795 40.8852 96.679 42.0926L102.43 47.4361C103.53 48.4582 105.315 48.4582 106.415 47.4361L112.964 41.3514C114.064 40.3293 114.064 38.6707 112.964 37.6486L106.415 31.5639C105.315 30.5418 103.53 30.5418 102.43 31.5639H102.436Z" fill="url(#paint0_linear_1_176)"/>
<path d="M102.436 31.5639L96.5021 37.0778C95.2026 38.2852 93.4401 38.9636 91.6035 38.9636H76.8853L70.0666 32.6278C68.8701 31.5161 66.9338 31.5161 65.7405 32.6278L60.9513 37.0778C59.6519 38.2852 57.8893 38.9636 56.0527 38.9636H42.2512C40.4147 38.9636 38.6521 38.2852 37.3527 37.0778L35.8506 35.6821C35.2073 35.0844 34.162 35.0844 33.5155 35.6821L30.4825 38.5003C29.8392 39.0981 29.8392 40.0693 30.4825 40.67L33.5155 43.4882C34.1588 44.0859 35.2041 44.0859 35.8506 43.4882L37.3527 42.0926C38.6521 40.8852 40.4147 40.2068 42.2512 40.2068H56.0463C57.8829 40.2068 59.6455 40.8852 60.9449 42.0926L65.7341 46.5425C66.9306 47.6543 68.8668 47.6543 70.0601 46.5425L76.8789 40.2068H91.7804C93.617 40.2068 95.3795 40.8852 96.679 42.0926L102.43 47.4361C103.53 48.4582 105.315 48.4582 106.415 47.4361L112.964 41.3514C114.064 40.3293 114.064 38.6707 112.964 37.6486L106.415 31.5639C105.315 30.5418 103.53 30.5418 102.43 31.5639H102.436Z" fill="url(#paint1_linear_1_176)"/>
<path d="M52.3708 18.0777L49.1265 21.1022C48.5396 21.6493 48.5396 22.5364 49.1265 23.0835L52.3708 26.1079C52.9577 26.655 53.9092 26.655 54.4961 26.1079L57.7405 23.0835C58.3274 22.5364 58.3274 21.6493 57.7405 21.1022L54.4961 18.0777C53.9092 17.5306 52.9577 17.5306 52.3708 18.0777Z" fill="white"/>
<path d="M70.0716 1.58758L66.1187 5.27247C64.9493 6.36255 64.9493 8.12993 66.1187 9.22002L70.0716 12.9049C71.2409 13.995 73.1368 13.995 74.3061 12.9049L78.2589 9.22002C79.4282 8.12993 79.4282 6.36255 78.2589 5.27247L74.3061 1.58758C73.1368 0.497497 71.2409 0.497498 70.0716 1.58758Z" fill="white"/>
<path d="M84.9675 15.2288L79.5817 20.2496C78.488 21.2692 78.488 22.9224 79.5817 23.942L84.9675 28.9627C86.0612 29.9823 87.8346 29.9823 88.9283 28.9627L94.3141 23.942C95.4078 22.9224 95.4078 21.2692 94.3141 20.2496L88.9283 15.2288C87.8346 14.2092 86.0612 14.2092 84.9675 15.2288Z" fill="white"/>
<path d="M52.3762 53.2876L49.1319 56.3121C48.545 56.8592 48.545 57.7462 49.1319 58.2934L52.3762 61.3178C52.9631 61.8649 53.9146 61.8649 54.5015 61.3178L57.7459 58.2934C58.3327 57.7462 58.3327 56.8592 57.7459 56.3121L54.5015 53.2876C53.9146 52.7405 52.9631 52.7405 52.3762 53.2876Z" fill="white"/>
<path d="M70.0711 66.4885L66.1183 70.1733C64.949 71.2634 64.949 73.0308 66.1183 74.1209L70.0711 77.8058C71.2404 78.8958 73.1363 78.8958 74.3056 77.8058L78.2584 74.1209C79.4277 73.0308 79.4277 71.2634 78.2584 70.1733L74.3056 66.4885C73.1363 65.3984 71.2404 65.3984 70.0711 66.4885Z" fill="white"/>
<path d="M84.9649 50.4312L79.5791 55.452C78.4854 56.4716 78.4854 58.1247 79.5791 59.1444L84.9649 64.1651C86.0587 65.1847 87.832 65.1847 88.9257 64.1651L94.3115 59.1444C95.4053 58.1247 95.4053 56.4716 94.3115 55.452L88.9257 50.4312C87.832 49.4116 86.0587 49.4116 84.9649 50.4312Z" fill="white"/>
<path d="M102.44 31.5245L96.5088 37.0541C95.2109 38.264 93.4462 38.9433 91.6132 38.9433H76.8923L70.0727 32.5858C68.8772 31.4714 66.9418 31.4714 65.7463 32.5858L60.9532 37.0541C59.6553 38.264 57.8906 38.9433 56.0576 38.9433H42.2475C40.4145 38.9433 38.6498 38.264 37.3519 37.0541L35.8491 35.6531C35.2001 35.0481 34.1641 35.0481 33.5151 35.6531L30.4867 38.4763C29.8378 39.0813 29.8378 40.0471 30.4867 40.6521L33.5151 43.4752C34.1641 44.0802 35.2001 44.0802 35.8491 43.4752L37.3519 42.0743C38.6498 40.8643 40.4145 40.1851 42.2475 40.1851H56.0462C57.8792 40.1851 59.6439 40.8643 60.9418 42.0743L65.7349 46.5425C66.9304 47.6569 68.8658 47.6569 70.0613 46.5425L76.8809 40.1851H91.784C93.617 40.1851 95.3817 40.8643 96.6796 42.0743L102.429 47.4341C103.533 48.4636 105.309 48.4636 106.414 47.4341L112.96 41.3313C114.065 40.3018 114.065 38.6461 112.96 37.6166L106.414 31.5139C105.309 30.4844 103.533 30.4844 102.429 31.5139L102.44 31.5245Z" fill="white"/>
</g>
<defs>
<linearGradient id="paint0_linear_1_176" x1="113.789" y1="39.6949" x2="30" y2="39.6949" gradientUnits="userSpaceOnUse">
<stop stop-color="white"/>
<stop offset="1" stop-color="white" stop-opacity="0"/>
</linearGradient>
<linearGradient id="paint1_linear_1_176" x1="113.789" y1="39.6949" x2="30" y2="39.6949" gradientUnits="userSpaceOnUse">
<stop stop-color="white"/>
<stop offset="1" stop-color="white" stop-opacity="0.5"/>
</linearGradient>
<clipPath id="clip0_1_176">
<rect width="610" height="78" fill="white" transform="translate(0 0.77002)"/>
</clipPath>
</defs>
</svg>
