<svg width="191" height="32" viewBox="0 0 191 32" fill="none" xmlns="http://www.w3.org/2000/svg">
<g clip-path="url(#clip0_1_489)">
<mask id="mask0_1_489" style="mask-type:luminance" maskUnits="userSpaceOnUse" x="8" y="2" width="160" height="27">
<path d="M167.925 2.52063H8.42004V28.82H167.925V2.52063Z" fill="white"/>
</mask>
<g mask="url(#mask0_1_489)">
<path d="M25.5173 28.8205H21.4653V12.4309V2.52112H25.5173V28.8205Z" fill="white"/>
<path d="M18.8052 9.08459H11.7961L8.41846 12.4727V25.4742L11.5839 28.8206H18.8052L22.8156 24.5431H12.3871V13.2367H22.8156L18.8052 9.08459Z" fill="white"/>
<path d="M42.3175 9.4624H31.6372L28.3448 12.7252V15.7313H31.9743V14.0402L32.9482 13.1092H41.431V17.132H31.5975L28.3448 20.349V25.7266L31.5122 28.8223H38.9002L41.431 26.3653V28.8223H45.4453V12.769L42.3196 9.4624H42.3175ZM41.4508 25.283H33.9776C32.8609 25.283 31.9546 24.3698 31.9546 23.2497C31.9546 22.6867 32.1827 22.1794 32.5475 21.8093C32.9145 21.4412 33.4223 21.2144 33.9795 21.2144H41.4528V25.283H41.4508Z" fill="white"/>
<path d="M74.1116 9.4624H63.4313L60.1389 12.7252V15.7313H63.7685V14.0402L64.7423 13.1092H73.2251V17.132H63.3916L60.1389 20.349V25.7266L63.3064 28.8223H70.6943L73.2251 26.3653V28.8223H77.2394V12.769L74.1136 9.4624H74.1116ZM73.2449 25.283H65.7717C64.655 25.283 63.7486 24.3698 63.7486 23.2497C63.7486 22.6867 63.9767 22.1794 64.3417 21.8093C64.7086 21.4412 65.2163 21.2144 65.7736 21.2144H73.2469V25.283H73.2449Z" fill="white"/>
<path d="M127.139 28.8201H123.086V16.7856V9.50793H127.139V28.8201Z" fill="white"/>
<path d="M113.966 26.1522H109.914V12.6912V9.50793H113.966V26.1522Z" fill="white"/>
<path d="M120.69 28.8199L123.982 25.3047H113.966L109.914 26.1521L112.953 28.8199H120.69Z" fill="white"/>
<path d="M51.9022 26.1522H47.8502V12.6911V4.55408H51.9022V26.1522Z" fill="white"/>
<path d="M57.7295 28.8197V25.3046H51.9023L47.8502 26.152L50.8888 28.8197H57.7295Z" fill="white"/>
<path d="M54.2668 9.50793H57.7298V13.0231H51.9026V11.7519L54.2668 9.50793Z" fill="white"/>
<path d="M83.6966 26.1525H79.6426V12.6914V4.55432H83.6966V26.1525Z" fill="white"/>
<path d="M89.522 28.8202V25.3049H83.6967L79.6426 26.1524L82.6831 28.8202H89.522Z" fill="white"/>
<path d="M86.0609 9.50806H89.5219V13.0232H83.6967V11.752L86.0609 9.50806Z" fill="white"/>
<path d="M95.9801 28.8202H91.9281V16.7857V9.50806H95.9801V28.8202Z" fill="white"/>
<path d="M98.6815 9.50806H104.338L107.42 13.0232V16.242H103.619V13.0232H95.9801V11.9232L98.6815 9.50806Z" fill="white"/>
<path d="M143.309 9.08435H132.923L129.546 12.4725V25.4739L132.711 28.8203H139.93L143.943 24.5429H133.515V13.2365H147.321L143.309 9.08435Z" fill="white"/>
<path d="M147.321 13.2365H142.381V15.4804H147.321V13.2365Z" fill="white"/>
<path d="M147.321 22.2986H142.381V24.5425H147.321V22.2986Z" fill="white"/>
<path d="M139.93 28.8199H143.561L147.32 24.5428H142.38L139.93 28.8199Z" fill="white"/>
<path d="M153.778 28.8205H149.726V12.4309V2.52112H153.778V28.8205Z" fill="white"/>
<path d="M153.778 17.4695L162.138 9.25549H166.023V13.3616H163.32L157.917 18.8243H153.778V17.4695Z" fill="white"/>
<path d="M153.778 20.1818L162.138 28.3958H166.023V24.2879H163.32L157.917 18.8251H153.778V20.1818Z" fill="white"/>
</g>
</g>
<defs>
<clipPath id="clip0_1_489">
<rect width="159.99" height="31.99" fill="white" transform="translate(8.42004)"/>
</clipPath>
</defs>
</svg>
