<svg width="46" height="32" viewBox="0 0 46 32" fill="none" xmlns="http://www.w3.org/2000/svg">
<g clip-path="url(#clip0_1_475)">
<path d="M34.3976 12.7404L32.1919 14.9475C31.7089 15.4308 31.0536 15.7024 30.371 15.7024H24.9002L22.3657 13.1663C21.921 12.7212 21.2012 12.7212 20.7577 13.1663L18.9775 14.9475C18.4946 15.4308 17.8394 15.7024 17.1567 15.7024H12.0267C11.344 15.7024 10.6889 15.4308 10.2059 14.9475L9.64758 14.3889C9.40847 14.1496 9.01993 14.1496 8.77962 14.3889L7.65223 15.517C7.41312 15.7562 7.41312 16.145 7.65223 16.3855L8.77962 17.5135C9.01873 17.7528 9.40728 17.7528 9.64758 17.5135L10.2059 16.9549C10.6889 16.4715 11.344 16.2 12.0267 16.2H17.1543C17.8371 16.2 18.4922 16.4715 18.9752 16.9549L20.7553 18.736C21.2001 19.1811 21.9198 19.1811 22.3633 18.736L24.8979 16.2H30.4368C31.1194 16.2 31.7745 16.4715 32.2576 16.9549L34.3952 19.0937C34.8041 19.5029 35.4676 19.5029 35.8764 19.0937L38.3106 16.6581C38.7194 16.249 38.7194 15.5852 38.3106 15.176L35.8764 12.7404C35.4676 12.3313 34.8041 12.3313 34.3952 12.7404H34.3976Z" fill="url(#paint0_linear_1_475)"/>
<path d="M34.3976 12.7404L32.1919 14.9475C31.7089 15.4308 31.0536 15.7024 30.371 15.7024H24.9002L22.3657 13.1663C21.921 12.7212 21.2012 12.7212 20.7577 13.1663L18.9775 14.9475C18.4946 15.4308 17.8394 15.7024 17.1567 15.7024H12.0267C11.344 15.7024 10.6889 15.4308 10.2059 14.9475L9.64758 14.3889C9.40847 14.1496 9.01993 14.1496 8.77962 14.3889L7.65223 15.517C7.41312 15.7562 7.41312 16.145 7.65223 16.3855L8.77962 17.5135C9.01873 17.7528 9.40728 17.7528 9.64758 17.5135L10.2059 16.9549C10.6889 16.4715 11.344 16.2 12.0267 16.2H17.1543C17.8371 16.2 18.4922 16.4715 18.9752 16.9549L20.7553 18.736C21.2001 19.1811 21.9198 19.1811 22.3633 18.736L24.8979 16.2H30.4368C31.1194 16.2 31.7745 16.4715 32.2576 16.9549L34.3952 19.0937C34.8041 19.5029 35.4676 19.5029 35.8764 19.0937L38.3106 16.6581C38.7194 16.249 38.7194 15.5852 38.3106 15.176L35.8764 12.7404C35.4676 12.3313 34.8041 12.3313 34.3952 12.7404H34.3976Z" fill="url(#paint1_linear_1_475)"/>
<path d="M15.7881 7.34137L14.5822 8.55201C14.364 8.77101 14.364 9.12607 14.5822 9.34507L15.7881 10.5557C16.0063 10.7747 16.36 10.7747 16.5781 10.5557L17.7841 9.34507C18.0022 9.12607 18.0022 8.77101 17.7841 8.55201L16.5781 7.34137C16.36 7.12237 16.0063 7.12237 15.7881 7.34137Z" fill="white"/>
<path d="M22.3675 0.740586L20.8983 2.21558C20.4636 2.65192 20.4636 3.35937 20.8983 3.79571L22.3675 5.2707C22.8022 5.70704 23.5068 5.70704 23.9415 5.2707L25.4107 3.79571C25.8453 3.35937 25.8453 2.65192 25.4107 2.21558L23.9415 0.740586C23.5068 0.304245 22.8022 0.304245 22.3675 0.740586Z" fill="white"/>
<path d="M27.9045 6.201L25.9026 8.21071C25.496 8.61885 25.496 9.28058 25.9026 9.68871L27.9045 11.6984C28.311 12.1065 28.9702 12.1065 29.3767 11.6984L31.3786 9.68871C31.7851 9.28058 31.7851 8.61885 31.3786 8.21071L29.3767 6.201C28.9702 5.79286 28.311 5.79286 27.9045 6.201Z" fill="white"/>
<path d="M15.7902 21.4353L14.5842 22.6459C14.3661 22.8649 14.3661 23.2199 14.5842 23.439L15.7902 24.6496C16.0083 24.8686 16.362 24.8686 16.5802 24.6496L17.7861 23.439C18.0043 23.2199 18.0043 22.8649 17.7861 22.6459L16.5802 21.4353C16.362 21.2162 16.0083 21.2162 15.7902 21.4353Z" fill="white"/>
<path d="M22.3674 26.7193L20.8981 28.1943C20.4635 28.6307 20.4635 29.3381 20.8981 29.7745L22.3674 31.2495C22.802 31.6858 23.5067 31.6858 23.9413 31.2495L25.4107 29.7745C25.8452 29.3381 25.8452 28.6307 25.4107 28.1943L23.9413 26.7193C23.5067 26.283 22.802 26.283 22.3674 26.7193Z" fill="white"/>
<path d="M27.9034 20.2918L25.9015 22.3016C25.4949 22.7097 25.4949 23.3714 25.9015 23.7796L27.9034 25.7892C28.31 26.1974 28.9691 26.1974 29.3757 25.7892L31.3776 23.7796C31.7841 23.3714 31.7841 22.7097 31.3776 22.3016L29.3757 20.2918C28.9691 19.8837 28.31 19.8837 27.9034 20.2918Z" fill="white"/>
<path d="M34.3991 12.7238L32.1943 14.9372C31.712 15.4215 31.056 15.6934 30.3746 15.6934H24.9028L22.368 13.1486C21.9236 12.7026 21.2042 12.7026 20.7599 13.1486L18.9783 14.9372C18.4959 15.4215 17.8399 15.6934 17.1586 15.6934H12.0253C11.3439 15.6934 10.6881 15.4215 10.2056 14.9372L9.64702 14.3765C9.4058 14.1343 9.02071 14.1343 8.77948 14.3765L7.65381 15.5065C7.4126 15.7486 7.4126 16.1352 7.65381 16.3774L8.77948 17.5075C9.02071 17.7497 9.4058 17.7497 9.64702 17.5075L10.2056 16.9468C10.6881 16.4624 11.3439 16.1905 12.0253 16.1905H17.1543C17.8357 16.1905 18.4916 16.4624 18.974 16.9468L20.7557 18.7352C21.2 19.1814 21.9194 19.1814 22.3638 18.7352L24.8986 16.1905H30.4382C31.1194 16.1905 31.7754 16.4624 32.2579 16.9468L34.395 19.0921C34.8054 19.5043 35.4655 19.5043 35.8761 19.0921L38.3094 16.6493C38.7198 16.2372 38.7198 15.5745 38.3094 15.1624L35.8761 12.7196C35.4655 12.3075 34.8054 12.3075 34.395 12.7196L34.3991 12.7238Z" fill="white"/>
</g>
<defs>
<linearGradient id="paint0_linear_1_475" x1="38.6172" y1="15.995" x2="7.4729" y2="15.995" gradientUnits="userSpaceOnUse">
<stop stop-color="white"/>
<stop offset="1" stop-color="white" stop-opacity="0"/>
</linearGradient>
<linearGradient id="paint1_linear_1_475" x1="38.6172" y1="15.995" x2="7.4729" y2="15.995" gradientUnits="userSpaceOnUse">
<stop stop-color="white"/>
<stop offset="1" stop-color="white" stop-opacity="0.5"/>
</linearGradient>
<clipPath id="clip0_1_475">
<rect width="44.77" height="31.99" fill="white" transform="translate(0.660034)"/>
</clipPath>
</defs>
</svg>
