<svg width="280" height="41" viewBox="0 0 280 41" fill="none" xmlns="http://www.w3.org/2000/svg">
<g clip-path="url(#clip0_1_50)">
<g clip-path="url(#clip1_1_50)">
<g clip-path="url(#clip2_1_50)">
<mask id="mask0_1_50" style="mask-type:luminance" maskUnits="userSpaceOnUse" x="58" y="2" width="222" height="37">
<path d="M279.142 2.5451H58.5752V38.9087H279.142V2.5451Z" fill="white"/>
</mask>
<g mask="url(#mask0_1_50)">
<path d="M82.2178 38.9091H76.6146V16.2475V2.54547H82.2178V38.9091Z" fill="#182B3F"/>
<path d="M72.9364 11.6207H63.244L58.5733 16.3055V34.2823L62.9505 38.9093H72.9364L78.482 32.9949H64.0613V17.3618H78.482L72.9364 11.6207Z" fill="#182B3F"/>
<path d="M105.45 12.1431H90.6809L86.1282 16.6545V20.8111H91.1472V18.4729L92.4938 17.1855H104.224V22.7477H90.6261L86.1282 27.1958V34.6314L90.5082 38.9118H100.724L104.224 35.5145V38.9118H109.775V16.7151L105.453 12.1431H105.45ZM104.251 34.018H93.9172C92.3731 34.018 91.1198 32.7553 91.1198 31.2066C91.1198 30.4281 91.4352 29.7266 91.9398 29.215C92.4472 28.7061 93.1493 28.3925 93.92 28.3925H104.254V34.018H104.251Z" fill="#182B3F"/>
<path d="M149.414 12.1431H134.645L130.092 16.6545V20.8111H135.111V18.4729L136.458 17.1855H148.188V22.7477H134.59L130.092 27.1958V34.6314L134.472 38.9118H144.688L148.188 35.5145V38.9118H153.739V16.7151L149.417 12.1431H149.414ZM148.215 34.018H137.881C136.337 34.018 135.084 32.7553 135.084 31.2066C135.084 30.4281 135.399 29.7266 135.904 29.215C136.411 28.7061 137.113 28.3925 137.884 28.3925H148.218V34.018H148.215Z" fill="#182B3F"/>
<path d="M222.743 38.9087H217.137V22.2687V12.2061H222.743V38.9087Z" fill="#182B3F"/>
<path d="M204.526 35.2198H198.923V16.6074V12.2061H204.526V35.2198Z" fill="#182B3F"/>
<path d="M213.824 38.9088L218.377 34.048H204.526L198.923 35.2199L203.125 38.9088H213.824Z" fill="#182B3F"/>
<path d="M118.704 35.2197H113.101V16.6074V5.35638H118.704V35.2197Z" fill="#182B3F"/>
<path d="M126.762 38.9085V34.0478H118.704L113.101 35.2196L117.303 38.9085H126.762Z" fill="#182B3F"/>
<path d="M121.973 12.206H126.762V17.0668H118.704V15.309L121.973 12.206Z" fill="#182B3F"/>
<path d="M162.67 35.2202H157.064V16.6079V5.35687H162.67V35.2202Z" fill="#182B3F"/>
<path d="M170.725 38.909V34.0483H162.67L157.064 35.2201L161.269 38.909H170.725Z" fill="#182B3F"/>
<path d="M165.94 12.2063H170.726V17.067H162.671V15.3092L165.94 12.2063Z" fill="#182B3F"/>
<path d="M179.658 38.9089H174.055V22.269V12.2063H179.658V38.9089Z" fill="#182B3F"/>
<path d="M183.393 12.2063H191.213L195.476 17.0671V21.518H190.221V17.0671H179.657V15.5459L183.393 12.2063Z" fill="#182B3F"/>
<path d="M245.101 11.6204H230.74L226.07 16.3051V34.282L230.447 38.9089H240.43L245.978 32.9946H231.558V17.3614H250.649L245.101 11.6204Z" fill="#182B3F"/>
<path d="M250.649 17.3614H243.817V20.4644H250.649V17.3614Z" fill="#182B3F"/>
<path d="M250.649 29.8914H243.817V32.9944H250.649V29.8914Z" fill="#182B3F"/>
<path d="M240.43 38.9089H245.452L250.649 32.9945H243.817L240.43 38.9089Z" fill="#182B3F"/>
<path d="M259.578 38.9091H253.975V16.2475V2.54547H259.578V38.9091Z" fill="#182B3F"/>
<path d="M259.577 23.2153L271.138 11.857H276.51V17.5347H272.772L265.301 25.0886H259.577V23.2153Z" fill="#182B3F"/>
<path d="M259.577 26.9648L271.138 38.3231H276.51V32.6426H272.772L265.301 25.0887H259.577V26.9648Z" fill="#182B3F"/>
</g>
<path d="M10.6778 9.41752L9.12923 10.9714C8.8491 11.2525 8.8491 11.7083 9.12923 11.9894L10.6778 13.5433C10.9579 13.8244 11.4121 13.8244 11.6922 13.5433L13.2408 11.9894C13.5209 11.7083 13.5209 11.2525 13.2408 10.9714L11.6922 9.41752C11.4121 9.13642 10.9579 9.13642 10.6778 9.41752Z" fill="#182B3F"/>
<path d="M19.1265 0.945078L17.2398 2.83832C16.6817 3.39839 16.6817 4.30644 17.2398 4.86652L19.1265 6.75976C19.6846 7.31983 20.5895 7.31983 21.1477 6.75976L23.0344 4.86652C23.5925 4.30645 23.5925 3.39839 23.0344 2.83832L21.1477 0.945078C20.5895 0.385006 19.6846 0.385006 19.1265 0.945078Z" fill="#182B3F"/>
<path d="M26.2365 7.95379L23.6658 10.5334C23.1438 11.0572 23.1438 11.9066 23.6658 12.4305L26.2365 15.01C26.7585 15.5339 27.605 15.5339 28.127 15.01L30.6977 12.4305C31.2197 11.9066 31.2197 11.0572 30.6977 10.5334L28.127 7.95379C27.605 7.42992 26.7585 7.42992 26.2365 7.95379Z" fill="#182B3F"/>
<path d="M10.6803 27.5079L9.13179 29.0618C8.85166 29.3429 8.85166 29.7986 9.13179 30.0797L10.6803 31.6337C10.9605 31.9148 11.4146 31.9148 11.6948 31.6337L13.2433 30.0797C13.5235 29.7986 13.5235 29.3429 13.2433 29.0618L11.6948 27.5079C11.4146 27.2268 10.9605 27.2268 10.6803 27.5079Z" fill="#182B3F"/>
<path d="M19.1263 34.2903L17.2396 36.1835C16.6814 36.7436 16.6814 37.6516 17.2396 38.2117L19.1263 40.1049C19.6844 40.665 20.5893 40.665 21.1474 40.1049L23.0341 38.2117C23.5923 37.6516 23.5923 36.7436 23.0341 36.1835L21.1474 34.2903C20.5893 33.7302 19.6844 33.7302 19.1263 34.2903Z" fill="#182B3F"/>
<path d="M26.2352 26.0403L23.6645 28.6199C23.1425 29.1437 23.1425 29.9931 23.6645 30.517L26.2352 33.0966C26.7573 33.6204 27.6037 33.6204 28.1257 33.0966L30.6964 30.517C31.2185 29.9931 31.2185 29.1437 30.6964 28.6199L28.1257 26.0403C27.6037 25.5164 26.7573 25.5164 26.2352 26.0403Z" fill="#182B3F"/>
<path d="M34.5764 16.3262L31.7452 19.1673C31.1257 19.7889 30.2834 20.1379 29.4085 20.1379H22.3821L19.127 16.8715C18.5564 16.299 17.6326 16.299 17.062 16.8715L14.7742 19.1673C14.1547 19.7889 13.3124 20.1379 12.4375 20.1379H5.84584C4.97093 20.1379 4.12863 19.7889 3.50913 19.1673L2.79182 18.4475C2.48207 18.1367 1.98756 18.1367 1.67781 18.4475L0.232312 19.898C-0.0774373 20.2088 -0.0774373 20.705 0.232312 21.0159L1.67781 22.4664C1.98756 22.7772 2.48207 22.7772 2.79182 22.4664L3.50913 21.7466C4.12863 21.1249 4.97093 20.7759 5.84584 20.7759H12.4321C13.307 20.7759 14.1493 21.1249 14.7688 21.7466L17.0566 24.0423C17.6272 24.6149 18.551 24.6149 19.1216 24.0423L22.3767 20.7759H29.49C30.3649 20.7759 31.2072 21.1249 31.8267 21.7466L34.571 24.5004C35.0981 25.0293 35.9458 25.0293 36.473 24.5004L39.5976 21.3649C40.1247 20.8359 40.1247 19.9852 39.5976 19.4563L36.473 16.3208C35.9458 15.7918 35.0981 15.7918 34.571 16.3208L34.5764 16.3262Z" fill="#182B3F"/>
</g>
</g>
</g>
<defs>
<clipPath id="clip0_1_50">
<rect width="280" height="40" fill="white" transform="translate(0 0.525024)"/>
</clipPath>
<clipPath id="clip1_1_50">
<rect width="280" height="40" fill="white" transform="translate(0 0.525024)"/>
</clipPath>
<clipPath id="clip2_1_50">
<rect width="280" height="40" fill="white" transform="translate(0 0.525024)"/>
</clipPath>
</defs>
</svg>
